<svg xmlns="http://www.w3.org/2000/svg" width="542" height="174"><path d="M441.683 150.413c-5.254-5.717-6.37-11.476-4.403-22.75 2.309-13.242 2.72-18.941 1.582-21.933-1.02-2.681-1.315-2.794-6.14-2.33-3.87.372-5.753 1.171-7.95 3.375-2.53 2.54-3.053 4.154-4.331 13.388-1.458 10.528-1.332 14.68.564 18.608.78 1.616.535 3.053-1.048 6.157-1.749 3.428-2.679 4.154-6.051 4.723-9.044 1.528-10.812-1.888-8.923-17.246.726-5.908 1.328-13.539 1.337-16.957.022-7.934-1.463-9.58-9.259-10.275-4.932-.44-5.767-.812-6.035-2.692-.583-4.1 2.256-7.717 7.204-9.179 2.53-.746 5.839-1.065 7.353-.706 4.471 1.057 11.1 4.87 11.566 6.653.671 2.566 3.826 1.758 8.718-2.233 2.458-2.006 6.35-4.205 8.648-4.887 3.866-1.147 4.503-1.048 8.5 1.313 6.349 3.749 8.616 6.244 9.854 10.84 1.927 7.155 2.081 11.685.594 17.38-.794 3.043-1.295 6.313-1.112 7.267.183.954.367 3.217.41 5.03.048 2.108.976 4.196 2.576 5.795 1.375 1.375 2.5 2.83 2.5 3.232 0 1.641-6.2 7.363-9.452 8.722-4.35 1.817-3.731 1.937-6.702-1.295zm3.611-50.18c.317-.513.049-1.257-.595-1.655-.698-.432-.904-.292-.51.345.363.588.095 1.297-.596 1.576-.899.362-.918.529-.065.585.655.044 1.45-.34 1.766-.852zm46.847 50.43c-5.94-4.16-8.77-16.69-8.134-36l.33-10-4.75.333c-4.163.291-4.75.09-4.75-1.626 0-1.222 1.85-3.227 4.92-5.333 6.455-4.425 7.702-6.793 8.63-16.374.425-4.4.889-9.125 1.03-10.5.142-1.375.294-4.119.339-6.097.097-4.319 2.918-7.903 6.22-7.903 1.802 0 2.973 1.062 4.686 4.25 2.064 3.843 2.254 5.351 1.979 15.75l-.304 11.5 10-.356c9.11-.324 10.168-.17 11.882 1.725 1.856 2.052 1.846 2.094-.776 3.09-1.461.556-2.915 1.684-3.23 2.506-1.019 2.653-6.724 5.267-12.769 5.851-3.24.313-6.39 1.066-6.997 1.674-1.422 1.422-2.34 15.4-1.63 24.829.471 6.266.908 7.593 3.035 9.227 3.072 2.36 6.267 2.435 12.881.299 5.638-1.821 6.618-1.54 5.618 1.61-.963 3.034-5.17 6.647-11.723 10.066-6.395 3.337-12.99 3.929-16.487 1.48zm-440.775-.452c-.351-.569-1.232-3.175-1.957-5.791-.725-2.616-2.53-7.907-4.01-11.757-10.639-27.657-16.14-46.075-19.563-65.5-.922-5.228-7.695-29.405-9.736-34.75-1.224-3.206 9.66.676 16.898 6.028 3.14 2.32 7.393 10.52 8.155 15.722l1.683 11.5c.644 4.4 2.289 11.6 3.656 16 4.169 13.421 6.062 19.786 7.354 24.721 1.175 4.493 3.62 6.744 5.837 5.374.475-.293 1.891-3.36 3.148-6.814 1.256-3.455 4.24-9.656 6.633-13.78 2.392-4.126 5.163-9.75 6.158-12.5.994-2.75 2.769-6.835 3.943-9.077 2.258-4.31 12.621-36.348 13.788-42.622.964-5.19 2.37-6.64 7.163-7.385 3.664-.57 4.512-.317 6.88 2.05 2.648 2.649 2.69 2.89 2.184 12.367-.302 5.642-1.213 11.331-2.19 13.666-1.854 4.435-17.51 36.92-20.543 42.626-4.978 9.366-12.367 28.308-14.432 37-2.415 10.16-5.883 16.254-9.917 17.421-1.189.344-3.061 1.66-4.161 2.922-2.338 2.686-6.055 4.06-6.97 2.579zm-18.53-88.607c0-.242-.45-.44-1-.44s-1 .476-1 1.058c0 .583.45.781 1 .441s1-.816 1-1.059zm-6.875-10.708c-.988-.98-1.102-.865-.56.56.376.986.935 1.541 1.243 1.234.308-.308 0-1.115-.683-1.794zm320.067 95.257c-4.791-1.007-12.74-6.395-16.661-11.292a722.182 722.182 0 0 0-3.585-4.448c-.563-.688-1.753-4.202-2.643-7.809-1.494-6.055-1.492-7.326.026-16.576 2.07-12.61 5.145-17.515 13.725-21.892 8.971-4.577 15.947-.66 15.947 8.954 0 9.094-5.13 16.597-12.949 18.94-4.747 1.422-5 2.704-1.79 9.09 3.879 7.72 10.13 10.634 26.633 12.417 5.084.549 6.337 1.943 5.506 6.126-1.077 5.423-3.405 6.792-12.09 7.11-4.295.157-9.749-.122-12.119-.62zm-3.094-44.81c.69-3.375-.49-4.478-3.266-3.053-1.835.942-3.37 6.193-2.31 7.907 1.129 1.826 4.877-1.438 5.576-4.855zm6.284-2.732c.342-.89.174-1.291-.393-.94-.543.335-.988 1.034-.988 1.551 0 1.439.717 1.122 1.381-.61zm-69.2 44.57c-2.376-1.09-6.762-4.524-9.747-7.63-4.475-4.658-5.798-6.895-7.541-12.748-2.678-8.992-2.066-15.233 2.455-25.018 3.419-7.399 7.59-11.851 13.37-14.273 4.694-1.968 7.028-1.666 8.871 1.147 1.535 2.342 1.506 2.77-.468 6.97-1.266 2.692-3.294 5.09-5.095 6.02-4.36 2.255-6.026 6.265-6.026 14.504 0 11.865 3.222 15.97 15.237 19.414 6.249 1.791 7.208 3.205 6.587 9.708l-.324 3.388-6.5.25c-4.771.183-7.649-.277-10.82-1.732zm2.819-57.018c0-.55-.424-1-.941-1-.518 0-1.22.45-1.56 1-.339.55.084 1 .942 1 .857 0 1.559-.45 1.559-1zm-161.76 56.75c-2.745-3.419-6.105-11.88-6.659-16.767-.342-3.016-.802-12.992-1.023-22.17-.44-18.196-.24-18.967 5.538-21.495 2.259-.987 3.204-.74 7.25 1.892 5.213 3.39 5.6 4.882 3.095 11.914-2.948 8.271-2.086 26.065 1.993 41.175 1.897 7.027 1.89 6.701.137 6.701-.785 0-2.877-2.235-4.647-4.968-1.77-2.732-3.624-4.717-4.12-4.411-.495.306-.602 2.542-.239 4.968.686 4.574.386 5.29-1.324 3.161zm101.017-2.187c-9.172-5.073-13.191-16.808-10.296-30.063 3.189-14.604 3.39-16.372 2.046-17.991-1.359-1.638-2.74-1.561-11.313.627-2.093.534-4.555 1.847-5.472 2.918-2.124 2.48-3.314 2.448-6.659-.183-1.55-1.22-3.078-1.753-3.578-1.25-1.406 1.416-3.106 17.986-2.396 23.343.437 3.294 1.437 5.651 3.032 7.15 3.168 2.976 3.007 4.213-.984 7.563-1.85 1.553-3.89 3.836-4.535 5.073-1.718 3.296-3.418 2.785-7.298-2.195-4.887-6.273-6.697-15.945-4.852-25.925 2.085-11.27 2.307-13.46 1.638-16.127-.883-3.52-3.86-3.215-9.723.997-2.68 1.925-5.502 3.5-6.272 3.5-1.624 0-3.595-5.016-3.595-9.15 0-2.618.3-2.85 3.69-2.85 2.03 0 6.292.538 9.474 1.195 5.263 1.087 6.26.997 11.08-1 6.319-2.62 7.621-2.71 8.436-.586.503 1.31 1.538 1.487 5.558.954 3.98-.528 5.614-.258 8.408 1.39 4.762 2.81 13.01 2.772 17.85-.083 2.9-1.71 4.234-1.95 6.794-1.216 5.725 1.642 7.26 9.203 4.087 20.12-1.11 3.817-1.456 7.657-1.096 12.145.466 5.802.873 6.83 3.509 8.862 2.68 2.067 2.901 2.653 2.19 5.807-.72 3.196-5.09 8.552-6.782 8.314-.384-.054-1.707-.656-2.941-1.339z" style="fill:#000"/></svg>